{
  "accessors": [
    {
      "bufferView": 2,
      "componentType": 5126,
      "count": 65532,
      "max": [
        47.557228088378906,
        12.789129257202148,
        167.28915405273438
      ],
      "min": [
        -47.4365234375,
        -17.653478622436523,
        -0.3618850111961365
      ],
      "type": "VEC3"
    },
    {
      "bufferView": 2,
      "byteOffset": 786384,
      "componentType": 5126,
      "count": 65532,
      "max": [
        0.9999982714653015,
        0.9999991059303284,
        0.999006986618042
      ],
      "min": [
        -0.9999982714653015,
        -0.9999970197677612,
        -0.9999898672103882
      ],
      "type": "VEC3"
    },
    {
      "bufferView": 3,
      "componentType": 5126,
      "count": 65532,
      "max": [
        1.0,
        0.9999997615814209,
        0.9872964024543762,
        1.0
      ],
      "min": [
        -0.9999942779541016,
        -0.9999930262565613,
        -0.994095504283905,
        1.0
      ],
      "type": "VEC4"
    },
    {
      "bufferView": 1,
      "componentType": 5126,
      "count": 65532,
      "max": [
        0.9889219999313354,
        0.9829760193824768
      ],
      "min": [
        0.02085000090301037,
        0.01687600091099739
      ],
      "type": "VEC2"
    },
    {
      "bufferView": 0,
      "componentType": 5125,
      "count": 369243,
      "type": "SCALAR"
    },
    {
      "bufferView": 2,
      "byteOffset": 1572768,
      "componentType": 5126,
      "count": 65532,
      "max": [
        44.688358306884766,
        12.789133071899414,
        182.17568969726563
      ],
      "min": [
        -44.16569137573242,
        -18.691082000732422,
        -0.11625999957323074
      ],
      "type": "VEC3"
    },
    {
      "bufferView": 2,
      "byteOffset": 2359152,
      "componentType": 5126,
      "count": 65532,
      "max": [
        0.9999936819076538,
        0.9999997615814209,
        0.9999149441719055
      ],
      "min": [
        -0.9999935030937195,
        -0.9999949932098389,
        -0.9999500513076782
      ],
      "type": "VEC3"
    },
    {
      "bufferView": 3,
      "byteOffset": 1048512,
      "componentType": 5126,
      "count": 65532,
      "max": [
        1.0,
        0.9999686479568481,
        0.9904322028160095,
        1.0
      ],
      "min": [
        -0.9999847412109375,
        -0.9999963045120239,
        -0.9872960448265076,
        1.0
      ],
      "type": "VEC4"
    },
    {
      "bufferView": 1,
      "byteOffset": 524256,
      "componentType": 5126,
      "count": 65532,
      "max": [
        0.9767739772796631,
        0.9871230125427246
      ],
      "min": [
        0.01107800006866455,
        0.07346300035715103
      ],
      "type": "VEC2"
    },
    {
      "bufferView": 0,
      "byteOffset": 1476972,
      "componentType": 5125,
      "count": 364740,
      "type": "SCALAR"
    },
    {
      "bufferView": 2,
      "byteOffset": 3145536,
      "componentType": 5126,
      "count": 10974,
      "max": [
        0.0,
        12.087761878967285,
        139.96583557128906
      ],
      "min": [
        -47.557228088378906,
        -15.443580627441406,
        -0.3618850111961365
      ],
      "type": "VEC3"
    },
    {
      "bufferView": 2,
      "byteOffset": 3277224,
      "componentType": 5126,
      "count": 10974,
      "max": [
        0.9998766183853149,
        0.999958872795105,
        0.9822993874549866
      ],
      "min": [
        -0.9992446303367615,
        -0.9999161958694458,
        -0.9999899864196777
      ],
      "type": "VEC3"
    },
    {
      "bufferView": 3,
      "byteOffset": 2097024,
      "componentType": 5126,
      "count": 10974,
      "max": [
        0.9999915361404419,
        0.9999397993087769,
        0.9940956234931946,
        1.0
      ],
      "min": [
        -0.9999939799308777,
        -0.9999645948410034,
        -0.8749256730079651,
        1.0
      ],
      "type": "VEC4"
    },
    {
      "bufferView": 1,
      "byteOffset": 1048512,
      "componentType": 5126,
      "count": 10974,
      "max": [
        0.4904020130634308,
        0.9310250282287598
      ],
      "min": [
        0.014716999605298042,
        0.01687600091099739
      ],
      "type": "VEC2"
    },
    {
      "bufferView": 0,
      "byteOffset": 2935932,
      "componentType": 5125,
      "count": 60129,
      "type": "SCALAR"
    }
  ],
  "asset": {
    "extras": {
      "author": "Aiden__R NC (https://sketchfab.com/roo17217569)",
      "license": "CC-BY-4.0 (http://creativecommons.org/licenses/by/4.0/)",
      "source": "https://sketchfab.com/3d-models/dead-body-8573aa6837684099bd1a8a584b47a920",
      "title": "dead body"
    },
    "generator": "Sketchfab-12.68.0",
    "version": "2.0"
  },
  "bufferViews": [
    {
      "buffer": 0,
      "byteLength": 3176448,
      "name": "floatBufferViews",
      "target": 34963
    },
    {
      "buffer": 0,
      "byteLength": 1136304,
      "byteOffset": 3176448,
      "byteStride": 8,
      "name": "floatBufferViews",
      "target": 34962
    },
    {
      "buffer": 0,
      "byteLength": 3408912,
      "byteOffset": 4312752,
      "byteStride": 12,
      "name": "floatBufferViews",
      "target": 34962
    },
    {
      "buffer": 0,
      "byteLength": 2272608,
      "byteOffset": 7721664,
      "byteStride": 16,
      "name": "floatBufferViews",
      "target": 34962
    }
  ],
  "buffers": [
    {
      "byteLength": 9994272,
      "uri": "scene.bin"
    }
  ],
  "extensionsRequired": [
    "KHR_materials_pbrSpecularGlossiness"
  ],
  "extensionsUsed": [
    "KHR_materials_pbrSpecularGlossiness"
  ],
  "images": [
    {
      "uri": "textures/material_0_diffuse.png"
    },
    {
      "uri": "textures/material_0_normal.png"
    },
    {
      "uri": "textures/material_0_occlusion.png"
    }
  ],
  "materials": [
    {
      "doubleSided": true,
      "extensions": {
        "KHR_materials_pbrSpecularGlossiness": {
          "diffuseFactor": [
            0.6663490853658537,
            0.6663490853658537,
            0.6663490853658537,
            1.0
          ],
          "diffuseTexture": {
            "index": 0
          },
          "glossinessFactor": 0.4,
          "specularFactor": [
            0.0,
            0.0,
            0.0
          ]
        }
      },
      "name": "material_0",
      "normalTexture": {
        "index": 1
      },
      "occlusionTexture": {
        "index": 2
      }
    }
  ],
  "meshes": [
    {
      "name": "Object_0",
      "primitives": [
        {
          "attributes": {
            "NORMAL": 1,
            "POSITION": 0,
            "TANGENT": 2,
            "TEXCOORD_0": 3
          },
          "indices": 4,
          "material": 0,
          "mode": 4
        }
      ]
    },
    {
      "name": "Object_1",
      "primitives": [
        {
          "attributes": {
            "NORMAL": 6,
            "POSITION": 5,
            "TANGENT": 7,
            "TEXCOORD_0": 8
          },
          "indices": 9,
          "material": 0,
          "mode": 4
        }
      ]
    },
    {
      "name": "Object_2",
      "primitives": [
        {
          "attributes": {
            "NORMAL": 11,
            "POSITION": 10,
            "TANGENT": 12,
            "TEXCOORD_0": 13
          },
          "indices": 14,
          "material": 0,
          "mode": 4
        }
      ]
    }
  ],
  "nodes": [
    {
      "children": [
        1
      ],
      "matrix": [
        1.0,
        0.0,
        0.0,
        0.0,
        0.0,
        2.220446049250313e-16,
        -1.0,
        0.0,
        0.0,
        1.0,
        2.220446049250313e-16,
        0.0,
        0.0,
        0.0,
        0.0,
        1.0
      ],
      "name": "Sketchfab_model"
    },
    {
      "children": [
        2,
        3,
        4
      ],
      "name": "body  lower .obj.cleaner.materialmerger.gles"
    },
    {
      "mesh": 0,
      "name": "Object_2"
    },
    {
      "mesh": 1,
      "name": "Object_3"
    },
    {
      "mesh": 2,
      "name": "Object_4"
    }
  ],
  "samplers": [
    {
      "magFilter": 9729,
      "minFilter": 9987,
      "wrapS": 10497,
      "wrapT": 10497
    }
  ],
  "scene": 0,
  "scenes": [
    {
      "name": "Sketchfab_Scene",
      "nodes": [
        0
      ]
    }
  ],
  "textures": [
    {
      "sampler": 0,
      "source": 0
    },
    {
      "sampler": 0,
      "source": 1
    },
    {
      "sampler": 0,
      "source": 2
    }
  ]
}
