{
  "accessors": [
    {
      "bufferView": 3,
      "componentType": 5126,
      "count": 1028,
      "max": [
        -2.641078472137451,
        0.10627205669879913,
        0.1184564083814621
      ],
      "min": [
        -2.716914653778076,
        0.030402032658457756,
        -0.11845628172159195
      ],
      "type": "VEC3"
    },
    {
      "bufferView": 3,
      "byteOffset": 12336,
      "componentType": 5126,
      "count": 1028,
      "max": [
        0.9947913885116577,
        0.9952391386032104,
        0.9988822937011719
      ],
      "min": [
        -0.9947913885116577,
        -0.9952391386032104,
        -0.9988822937011719
      ],
      "type": "VEC3"
    },
    {
      "bufferView": 2,
      "componentType": 5126,
      "count": 1028,
      "max": [
        0.7146387696266174,
        0.7622841000556946
      ],
      "min": [
        0.49227797985076904,
        0.5055797100067139
      ],
      "type": "VEC2"
    },
    {
      "bufferView": 1,
      "componentType": 5125,
      "count": 5760,
      "type": "SCALAR"
    },
    {
      "bufferView": 3,
      "byteOffset": 24672,
      "componentType": 5126,
      "count": 3099,
      "max": [
        11.211694717407227,
        0.20471858978271484,
        0.19995808601379395
      ],
      "min": [
        -2.8709192276000977,
        -0.16527646780014038,
        -0.199957937002182
      ],
      "type": "VEC3"
    },
    {
      "bufferView": 3,
      "byteOffset": 61860,
      "componentType": 5126,
      "count": 3099,
      "max": [
        1.0,
        1.0,
        0.9999904036521912
      ],
      "min": [
        -0.9958823919296265,
        -1.0,
        -0.9999904036521912
      ],
      "type": "VEC3"
    },
    {
      "bufferView": 2,
      "byteOffset": 8224,
      "componentType": 5126,
      "count": 3099,
      "max": [
        4.798255920410156,
        0.9924885630607605
      ],
      "min": [
        -3.8740532398223877,
        -0.06872546672821045
      ],
      "type": "VEC2"
    },
    {
      "bufferView": 1,
      "byteOffset": 23040,
      "componentType": 5125,
      "count": 16614,
      "type": "SCALAR"
    },
    {
      "bufferView": 3,
      "byteOffset": 99048,
      "componentType": 5126,
      "count": 51,
      "max": [
        -2.452745199203491,
        0.023514894768595695,
        0.18859413266181946
      ],
      "min": [
        -2.8583176136016846,
        -0.08648683875799179,
        -0.17254936695098877
      ],
      "type": "VEC3"
    },
    {
      "bufferView": 3,
      "byteOffset": 99660,
      "componentType": 5126,
      "count": 51,
      "max": [
        0.041169945150613785,
        0.5071665644645691,
        0.9626870155334473
      ],
      "min": [
        -0.8104667663574219,
        -0.8941460251808167,
        -0.9032096266746521
      ],
      "type": "VEC3"
    },
    {
      "bufferView": 2,
      "byteOffset": 33016,
      "componentType": 5126,
      "count": 51,
      "max": [
        -3.6035916805267334,
        0.890966534614563
      ],
      "min": [
        -3.8662946224212646,
        -0.040669411420822144
      ],
      "type": "VEC2"
    },
    {
      "bufferView": 1,
      "byteOffset": 89496,
      "componentType": 5125,
      "count": 132,
      "type": "SCALAR"
    },
    {
      "bufferView": 5,
      "componentType": 5126,
      "count": 28,
      "max": [
        1.0,
        0.9999998807907104,
        0.1259457916021347,
        0.0,
        1.1089445251855068e-05,
        1.0,
        0.9999998807907104,
        0.0,
        0.9999998807907104,
        1.6666827917788396e-08,
        1.0,
        0.0,
        0.0,
        3.161802291870117,
        0.3298799991607666,
        1.0
      ],
      "min": [
        -0.0029133360367268324,
        -0.9999157786369324,
        -0.1413913071155548,
        0.0,
        -0.020598527044057846,
        -0.12597247958183289,
        -0.9997033476829529,
        0.0,
        0.0,
        -2.120213764555956e-07,
        -0.020600371062755585,
        0.0,
        -0.18937556445598602,
        -10.827701568603516,
        -0.5234977006912231,
        1.0
      ],
      "type": "MAT4"
    },
    {
      "bufferView": 0,
      "componentType": 5123,
      "count": 1028,
      "type": "VEC4"
    },
    {
      "bufferView": 4,
      "componentType": 5126,
      "count": 1028,
      "max": [
        1.0,
        0.0706934705376625,
        0.0,
        0.0
      ],
      "min": [
        0.9293065071105957,
        0.0,
        0.0,
        0.0
      ],
      "type": "VEC4"
    },
    {
      "bufferView": 0,
      "byteOffset": 8224,
      "componentType": 5123,
      "count": 3099,
      "type": "VEC4"
    },
    {
      "bufferView": 4,
      "byteOffset": 16448,
      "componentType": 5126,
      "count": 3099,
      "max": [
        1.0,
        0.4871019124984741,
        0.25578367710113525,
        0.060749974101781845
      ],
      "min": [
        0.4340766370296478,
        0.0,
        0.0,
        0.0
      ],
      "type": "VEC4"
    },
    {
      "bufferView": 0,
      "byteOffset": 33016,
      "componentType": 5123,
      "count": 51,
      "type": "VEC4"
    },
    {
      "bufferView": 4,
      "byteOffset": 66032,
      "componentType": 5126,
      "count": 51,
      "max": [
        1.0,
        0.08000427484512329,
        0.0,
        0.0
      ],
      "min": [
        0.9199957251548767,
        0.0,
        0.0,
        0.0
      ],
      "type": "VEC4"
    }
  ],
  "asset": {
    "extras": {
      "author": "victory_mirosya (https://sketchfab.com/victory_mirosya)",
      "license": "CC-BY-4.0 (http://creativecommons.org/licenses/by/4.0/)",
      "source": "https://sketchfab.com/3d-models/snake-0bfaf9026c7449af90ca88d9e671c403",
      "title": "Snake"
    },
    "generator": "Sketchfab-12.78.0",
    "version": "2.0"
  },
  "bufferViews": [
    {
      "buffer": 0,
      "byteLength": 33424,
      "byteStride": 8,
      "name": "shortBufferViews",
      "target": 34962
    },
    {
      "buffer": 0,
      "byteLength": 90024,
      "byteOffset": 33424,
      "name": "floatBufferViews",
      "target": 34963
    },
    {
      "buffer": 0,
      "byteLength": 33424,
      "byteOffset": 123448,
      "byteStride": 8,
      "name": "floatBufferViews",
      "target": 34962
    },
    {
      "buffer": 0,
      "byteLength": 100272,
      "byteOffset": 156872,
      "byteStride": 12,
      "name": "floatBufferViews",
      "target": 34962
    },
    {
      "buffer": 0,
      "byteLength": 66848,
      "byteOffset": 257144,
      "byteStride": 16,
      "name": "floatBufferViews",
      "target": 34962
    },
    {
      "buffer": 0,
      "byteLength": 1792,
      "byteOffset": 323992,
      "name": "floatBufferViews"
    }
  ],
  "buffers": [
    {
      "byteLength": 325784,
      "uri": "scene.bin"
    }
  ],
  "images": [
    {
      "uri": "textures/Material.001_baseColor.jpeg"
    },
    {
      "uri": "textures/Material.002_baseColor.jpeg"
    }
  ],
  "materials": [
    {
      "doubleSided": true,
      "name": "Material.001",
      "pbrMetallicRoughness": {
        "baseColorTexture": {
          "index": 0
        },
        "metallicFactor": 0.234043,
        "roughnessFactor": 0.0
      }
    },
    {
      "doubleSided": true,
      "name": "Material.002",
      "pbrMetallicRoughness": {
        "baseColorTexture": {
          "index": 1
        },
        "metallicFactor": 0.159574,
        "roughnessFactor": 0.15927313086491499
      }
    },
    {
      "doubleSided": true,
      "name": "Material.003",
      "pbrMetallicRoughness": {
        "baseColorFactor": [
          0.303197,
          0.125177,
          0.110514,
          1.0
        ],
        "metallicFactor": 0.0
      }
    }
  ],
  "meshes": [
    {
      "name": "Object_0",
      "primitives": [
        {
          "attributes": {
            "JOINTS_0": 13,
            "NORMAL": 1,
            "POSITION": 0,
            "TEXCOORD_0": 2,
            "WEIGHTS_0": 14
          },
          "indices": 3,
          "material": 0,
          "mode": 4
        }
      ]
    },
    {
      "name": "Object_1",
      "primitives": [
        {
          "attributes": {
            "JOINTS_0": 15,
            "NORMAL": 5,
            "POSITION": 4,
            "TEXCOORD_0": 6,
            "WEIGHTS_0": 16
          },
          "indices": 7,
          "material": 1,
          "mode": 4
        }
      ]
    },
    {
      "name": "Object_2",
      "primitives": [
        {
          "attributes": {
            "JOINTS_0": 17,
            "NORMAL": 9,
            "POSITION": 8,
            "TEXCOORD_0": 10,
            "WEIGHTS_0": 18
          },
          "indices": 11,
          "material": 2,
          "mode": 4
        }
      ]
    }
  ],
  "nodes": [
    {
      "children": [
        1
      ],
      "matrix": [
        1.0,
        0.0,
        0.0,
        0.0,
        0.0,
        2.220446049250313e-16,
        -1.0,
        0.0,
        0.0,
        1.0,
        2.220446049250313e-16,
        0.0,
        0.0,
        0.0,
        0.0,
        1.0
      ],
      "name": "Sketchfab_model"
    },
    {
      "children": [
        2
      ],
      "name": "root"
    },
    {
      "children": [
        3
      ],
      "matrix": [
        1.0,
        0.0,
        0.0,
        0.0,
        0.0,
        2.220446049250313e-16,
        1.0,
        0.0,
        0.0,
        -1.0,
        2.220446049250313e-16,
        0.0,
        0.0,
        0.0,
        0.0,
        1.0
      ],
      "name": "GLTF_SceneRootNode"
    },
    {
      "children": [
        4
      ],
      "matrix": [
        -0.020599274997923356,
        0.9997878124229961,
        0.0,
        0.0,
        -0.9997878124229961,
        -0.020599274997923356,
        0.0,
        0.0,
        0.0,
        0.0,
        1.0,
        0.0,
        -1.957182765007019,
        -0.011818982660770416,
        -0.006865671370178461,
        1.0
      ],
      "name": "Armature_28"
    },
    {
      "children": [
        5,
        7,
        8,
        9,
        6
      ],
      "name": "GLTF_created_0"
    },
    {
      "children": [
        10,
        21
      ],
      "name": "GLTF_created_0_rootJoint"
    },
    {
      "name": "Sphere_27"
    },
    {
      "mesh": 0,
      "name": "Object_7",
      "skin": 0
    },
    {
      "mesh": 1,
      "name": "Object_8",
      "skin": 0
    },
    {
      "mesh": 2,
      "name": "Object_9",
      "skin": 0
    },
    {
      "children": [
        11
      ],
      "name": "Bone_10",
      "rotation": [
        -0.7509534955024719,
        -0.24661847949028015,
        0.17211230099201202,
        0.5878993272781372
      ],
      "scale": [
        1.0000001192092896,
        1.0000001192092896,
        1.0000001192092896
      ],
      "translation": [
        -0.08849246799945831,
        -5.1186370849609375,
        0.19017310440540314
      ]
    },
    {
      "children": [
        12
      ],
      "name": "Bone.006_9",
      "rotation": [
        -0.15070168673992157,
        -0.1381034553050995,
        -0.3744240999221802,
        0.9044462442398071
      ],
      "scale": [
        0.9999999403953552,
        0.9999999403953552,
        0.9999998211860657
      ],
      "translation": [
        -3.926909020179892e-09,
        0.5893089771270752,
        -5.018712112558887e-09
      ]
    },
    {
      "children": [
        13
      ],
      "name": "Bone.018_8",
      "rotation": [
        -0.1005445122718811,
        0.016577787697315216,
        -0.33816206455230713,
        0.9355546236038208
      ],
      "scale": [
        0.9999998807907104,
        0.9999997615814209,
        0.9999998807907104
      ],
      "translation": [
        2.327222858866662e-08,
        0.8476182222366333,
        -2.4816459998078244e-09
      ]
    },
    {
      "children": [
        14
      ],
      "name": "Bone.019_7",
      "rotation": [
        0.005631377920508385,
        0.31811249256134033,
        -0.277169793844223,
        0.906614363193512
      ],
      "scale": [
        0.9999999403953552,
        0.9999998211860657,
        0.9999999403953552
      ],
      "translation": [
        -2.460998587139329e-07,
        0.5841899514198303,
        2.4140848609022214e-07
      ]
    },
    {
      "children": [
        15
      ],
      "name": "Bone.020_6",
      "rotation": [
        0.020271264016628265,
        0.30068862438201904,
        -0.14194661378860474,
        0.9428821206092834
      ],
      "scale": [
        1.0,
        0.9999999403953552,
        1.0
      ],
      "translation": [
        -4.651950291645335e-08,
        0.5647135972976685,
        7.94416621374694e-09
      ]
    },
    {
      "children": [
        16
      ],
      "name": "Bone.021_5",
      "rotation": [
        0.14578218758106232,
        0.22379623353481293,
        -0.15377500653266907,
        0.9513233304023743
      ],
      "scale": [
        0.9999998807907104,
        0.9999999403953552,
        1.0
      ],
      "translation": [
        4.6275076215351874e-07,
        0.5716990828514099,
        -4.460063962596905e-08
      ]
    },
    {
      "children": [
        17
      ],
      "name": "Bone.022_4",
      "rotation": [
        0.1572781354188919,
        0.1773170679807663,
        -0.1828165203332901,
        0.954149067401886
      ],
      "scale": [
        0.9999998807907104,
        0.9999999403953552,
        0.9999999403953552
      ],
      "translation": [
        9.677965095988839e-09,
        0.7379957437515259,
        1.1761775198237956e-07
      ]
    },
    {
      "children": [
        18
      ],
      "name": "Bone.023_3",
      "rotation": [
        0.19290784001350403,
        0.10988130420446396,
        -0.1402418613433838,
        0.9649066925048828
      ],
      "translation": [
        -4.775865818373859e-07,
        0.47464075684547424,
        7.450687178334192e-09
      ]
    },
    {
      "children": [
        19
      ],
      "name": "Bone.024_2",
      "rotation": [
        0.15062561631202698,
        0.06369953602552414,
        -0.2862611711025238,
        0.9440915584564209
      ],
      "scale": [
        1.0,
        0.9999999403953552,
        0.9999998807907104
      ],
      "translation": [
        -4.935104698233772e-07,
        0.3079133629798889,
        4.654503893419815e-09
      ]
    },
    {
      "children": [
        20
      ],
      "name": "Bone.025_1",
      "rotation": [
        0.0852038711309433,
        0.006098455283790827,
        -0.2917419970035553,
        0.9526750445365906
      ],
      "scale": [
        1.0000001192092896,
        1.0,
        0.9999998807907104
      ],
      "translation": [
        -1.495250856464736e-08,
        0.4938793182373047,
        6.149679165901034e-08
      ]
    },
    {
      "name": "Bone.026_0",
      "rotation": [
        0.2641572952270508,
        -0.048726636916399,
        -0.06301486492156982,
        0.961184561252594
      ],
      "scale": [
        0.9999999403953552,
        1.0,
        1.0000001192092896
      ],
      "translation": [
        1.437729224562645e-08,
        0.2721008062362671,
        -3.259629011154175e-09
      ]
    },
    {
      "children": [
        22
      ],
      "name": "Bone.001_26",
      "rotation": [
        0.37630900740623474,
        0.5924080014228821,
        0.34757867455482483,
        0.6217985153198242
      ],
      "scale": [
        1.0000001192092896,
        1.0000001192092896,
        1.0000001192092896
      ],
      "translation": [
        -0.08849247545003891,
        -5.118637561798096,
        0.19017308950424194
      ]
    },
    {
      "children": [
        23
      ],
      "name": "Bone.002_25",
      "rotation": [
        -0.006505030207335949,
        0.02449524588882923,
        -0.36825352907180786,
        0.9293798804283142
      ],
      "translation": [
        -9.808348799822397e-09,
        0.6031741499900818,
        1.3050147629201092e-09
      ]
    },
    {
      "children": [
        24
      ],
      "name": "Bone.003_24",
      "rotation": [
        0.011278257705271244,
        -0.019564339891076088,
        -0.09082125127315521,
        0.9956111311912537
      ],
      "translation": [
        -1.8412922742072624e-08,
        0.6926846504211426,
        -1.2103910762562009e-08
      ]
    },
    {
      "children": [
        25
      ],
      "name": "Bone.004_23",
      "rotation": [
        0.0008305027149617672,
        -0.01933327503502369,
        -0.3336617052555084,
        0.94249427318573
      ],
      "scale": [
        1.0000001192092896,
        1.0,
        1.0
      ],
      "translation": [
        9.61503654473006e-10,
        0.5517080426216125,
        -1.615068612181858e-08
      ]
    },
    {
      "children": [
        26
      ],
      "name": "Bone.005_22",
      "rotation": [
        0.0146177988499403,
        -0.016610901802778244,
        -0.15747758746147156,
        0.9872746467590332
      ],
      "scale": [
        0.9999998807907104,
        0.9999998211860657,
        0.9999999403953552
      ],
      "translation": [
        1.1567561841729912e-07,
        0.5579724311828613,
        4.592625391097727e-09
      ]
    },
    {
      "children": [
        27
      ],
      "name": "Bone.007_21",
      "rotation": [
        -0.07258185744285583,
        0.08203490078449249,
        -0.4342418909072876,
        0.8941119313240051
      ],
      "scale": [
        0.9999999403953552,
        0.9999998807907104,
        0.9999999403953552
      ],
      "translation": [
        2.1721240273109288e-07,
        0.5451831221580505,
        9.148814150705675e-09
      ]
    },
    {
      "children": [
        28
      ],
      "name": "Bone.008_20",
      "rotation": [
        0.03242577612400055,
        0.005586039274930954,
        -0.1628667563199997,
        0.9860993027687073
      ],
      "scale": [
        1.0,
        0.9999998807907104,
        0.9999999403953552
      ],
      "translation": [
        3.2763047830286496e-10,
        0.4489424526691437,
        -6.52464837713751e-09
      ]
    },
    {
      "children": [
        29
      ],
      "name": "Bone.009_19",
      "rotation": [
        -0.024218199774622917,
        0.02139938808977604,
        -0.35937410593032837,
        0.9326338171958923
      ],
      "scale": [
        0.9999998211860657,
        0.9999998807907104,
        0.9999999403953552
      ],
      "translation": [
        -3.445876695096217e-09,
        0.5581188201904297,
        -9.950687740456488e-08
      ]
    },
    {
      "children": [
        30
      ],
      "name": "Bone.010_18",
      "rotation": [
        0.07720708101987839,
        -0.18975234031677246,
        -0.306640625,
        0.9295185208320618
      ],
      "translation": [
        -1.1763228258132585e-07,
        0.48207902908325195,
        3.6833167627037255e-08
      ]
    },
    {
      "children": [
        31
      ],
      "name": "Bone.011_17",
      "rotation": [
        -0.07578139752149582,
        -0.16296061873435974,
        -0.21958479285240173,
        0.958897054195404
      ],
      "scale": [
        0.9999998807907104,
        1.0,
        1.0
      ],
      "translation": [
        1.2696065709860704e-07,
        0.5002509951591492,
        -2.4919478036622422e-08
      ]
    },
    {
      "children": [
        32
      ],
      "name": "Bone.012_16",
      "rotation": [
        -0.37227246165275574,
        0.2118004709482193,
        -0.2703302800655365,
        0.8622502088546753
      ],
      "translation": [
        4.608480423939909e-07,
        0.3592109680175781,
        -3.1098441599652915e-09
      ]
    },
    {
      "children": [
        33
      ],
      "name": "Bone.013_15",
      "rotation": [
        0.06946181505918503,
        -0.07948309183120728,
        -0.6476406455039978,
        0.7545986771583557
      ],
      "scale": [
        0.9999998211860657,
        0.9999998211860657,
        0.9999998807907104
      ],
      "translation": [
        -4.197101777236867e-09,
        0.44912678003311157,
        3.9170970467239385e-08
      ]
    },
    {
      "children": [
        34
      ],
      "name": "Bone.014_14",
      "rotation": [
        -0.18964199721813202,
        -0.29726922512054443,
        -0.4149058163166046,
        0.8387610912322998
      ],
      "scale": [
        0.9999999403953552,
        0.9999999403953552,
        0.9999998807907104
      ],
      "translation": [
        -4.086736637987087e-08,
        0.5387317538261414,
        -1.3413469446277304e-07
      ]
    },
    {
      "children": [
        35
      ],
      "name": "Bone.015_13",
      "rotation": [
        0.04984450712800026,
        -0.22993046045303345,
        -0.21861295402050018,
        0.9470247626304626
      ],
      "scale": [
        0.9999998807907104,
        1.0,
        0.9999998211860657
      ],
      "translation": [
        2.1182559706289794e-08,
        0.4621709883213043,
        3.842152551669642e-08
      ]
    },
    {
      "children": [
        36
      ],
      "name": "Bone.016_12",
      "rotation": [
        -0.03343930095434189,
        -0.13373257219791412,
        -0.30706852674484253,
        0.9416508674621582
      ],
      "scale": [
        1.0,
        0.9999998807907104,
        0.9999997615814209
      ],
      "translation": [
        2.686222160264151e-07,
        0.4232900142669678,
        -3.452941399473275e-08
      ]
    },
    {
      "name": "Bone.017_11",
      "rotation": [
        -0.34931904077529907,
        0.1737205684185028,
        -0.43528828024864197,
        0.8113701939582825
      ],
      "scale": [
        0.9999999403953552,
        0.9999999403953552,
        0.9999999403953552
      ],
      "translation": [
        2.639496869960567e-07,
        0.5002502202987671,
        -3.4365189804930196e-08
      ]
    }
  ],
  "samplers": [
    {
      "magFilter": 9729,
      "minFilter": 9987,
      "wrapS": 10497,
      "wrapT": 10497
    }
  ],
  "scene": 0,
  "scenes": [
    {
      "name": "Sketchfab_Scene",
      "nodes": [
        0
      ]
    }
  ],
  "skins": [
    {
      "inverseBindMatrices": 12,
      "joints": [
        5,
        10,
        11,
        12,
        13,
        14,
        15,
        16,
        17,
        18,
        19,
        20,
        21,
        22,
        23,
        24,
        25,
        26,
        27,
        28,
        29,
        30,
        31,
        32,
        33,
        34,
        35,
        36
      ],
      "skeleton": 5
    }
  ],
  "textures": [
    {
      "sampler": 0,
      "source": 0
    },
    {
      "sampler": 0,
      "source": 1
    }
  ]
}
